Serifas_Text_Light.ufo
<glyph name="C" format="2">
  <advance width="708"/>
  <unicode hex="0043"/>
  <outline>
    <contour>
      <point x="656" y="94" type="line"/>
      <point x="596" y="16"/>
      <point x="520" y="-18"/>
      <point x="381" y="-18" type="curve" smooth="yes"/>
      <point x="159" y="-18"/>
      <point x="62" y="107"/>
      <point x="62" y="381" type="curve" smooth="yes"/>
      <point x="62" y="648"/>
      <point x="161" y="760"/>
      <point x="400" y="760" type="curve" smooth="yes"/>
      <point x="502" y="760"/>
      <point x="591" y="738"/>
      <point x="644" y="705" type="curve"/>
      <point x="618" y="475" type="line"/>
      <point x="595" y="475" type="line"/>
      <point x="558" y="723" type="line"/>
      <point x="614" y="645" type="line"/>
      <point x="556" y="681"/>
      <point x="476" y="699"/>
      <point x="392" y="699" type="curve" smooth="yes"/>
      <point x="254" y="699"/>
      <point x="129" y="597"/>
      <point x="128" y="433" type="curve" smooth="yes"/>
      <point x="126" y="154"/>
      <point x="203" y="41"/>
      <point x="381" y="41" type="curve" smooth="yes"/>
      <point x="497" y="41"/>
      <point x="559" y="88"/>
      <point x="602" y="150" type="curve"/>
    </contour>
  </outline>
</glyph>
<glyph name="D" format="2">
  <advance width="754"/>
  <unicode hex="0044"/>
  <outline>
    <contour>
      <point x="317" y="-1" type="line" smooth="yes"/>
      <point x="591" y="-2"/>
      <point x="695" y="104"/>
      <point x="695" y="370" type="curve" smooth="yes"/>
      <point x="695" y="638"/>
      <point x="595" y="740"/>
      <point x="327" y="740" type="curve" smooth="yes"/>
      <point x="55" y="740" type="line"/>
      <point x="55" y="680" type="line"/>
      <point x="192" y="680" type="line"/>
      <point x="129" y="716" type="line"/>
      <point x="129" y="49" type="line"/>
      <point x="163" y="72" type="line"/>
      <point x="55" y="48" type="line"/>
      <point x="55" y="0" type="line"/>
    </contour>
    <contour>
      <point x="227" y="681" type="line" smooth="yes"/>
      <point x="502" y="685"/>
      <point x="632" y="658"/>
      <point x="632" y="352" type="curve" smooth="yes"/>
      <point x="632" y="78"/>
      <point x="502" y="51"/>
      <point x="226" y="65" type="curve" smooth="yes"/>
      <point x="148" y="69" type="line"/>
      <point x="183" y="36" type="line"/>
      <point x="183" y="724" type="line"/>
      <point x="159" y="680" type="line"/>
    </contour>
  </outline>
</glyph>
<glyph name="E" format="2">
  <advance width="668"/>
  <unicode hex="0045"/>
  <outline>
    <contour>
      <point x="143" y="334" type="line"/>
      <point x="143" y="413" type="line"/>
      <point x="466" y="392" type="line"/>
      <point x="466" y="347" type="line"/>
    </contour>
    <contour>
      <point x="525" y="30" type="line"/>
      <point x="575" y="235" type="line"/>
      <point x="607" y="235" type="line"/>
      <point x="607" y="0" type="line"/>
      <point x="50" y="0" type="line"/>
      <point x="50" y="42" type="line"/>
      <point x="153" y="70" type="line"/>
      <point x="124" y="32" type="line"/>
      <point x="124" y="700" type="line"/>
      <point x="154" y="670" type="line"/>
      <point x="50" y="670" type="line"/>
      <point x="50" y="740" type="line"/>
      <point x="593" y="740" type="line"/>
      <point x="585" y="516" type="line"/>
      <point x="550" y="516" type="line"/>
      <point x="523" y="708" type="line"/>
      <point x="556" y="676" type="line"/>
      <point x="145" y="676" type="line"/>
      <point x="186" y="713" type="line"/>
      <point x="186" y="34" type="line"/>
      <point x="146" y="60" type="line"/>
      <point x="557" y="60" type="line"/>
    </contour>
  </outline>
</glyph>
<glyph name="F" format="2">
  <advance width="639"/>
  <unicode hex="0046"/>
  <outline>
    <contour>
      <point x="143" y="319" type="line"/>
      <point x="143" y="398" type="line"/>
      <point x="475" y="377" type="line"/>
      <point x="475" y="332" type="line"/>
    </contour>
    <contour>
      <point x="393" y="0" type="line"/>
      <point x="50" y="0" type="line"/>
      <point x="50" y="58" type="line"/>
      <point x="153" y="86" type="line"/>
      <point x="124" y="48" type="line"/>
      <point x="124" y="700" type="line"/>
      <point x="154" y="670" type="line"/>
      <point x="50" y="670" type="line"/>
      <point x="50" y="740" type="line"/>
      <point x="602" y="740" type="line"/>
      <point x="594" y="506" type="line"/>
      <point x="552" y="506" type="line"/>
      <point x="521" y="708" type="line"/>
      <point x="558" y="676" type="line"/>
      <point x="145" y="676" type="line"/>
      <point x="186" y="713" type="line"/>
      <point x="186" y="38" type="line"/>
      <point x="150" y="86" type="line"/>
      <point x="393" y="58" type="line"/>
    </contour>
  </outline>
</glyph>
<glyph name="G" format="2">
  <advance width="758"/>
  <unicode hex="0047"/>
  <outline>
    <contour>
      <point x="608" y="83" type="line"/>
      <point x="608" y="315" type="line"/>
      <point x="637" y="274" type="line"/>
      <point x="440" y="282" type="line"/>
      <point x="440" y="338" type="line"/>
      <point x="675" y="348" type="line"/>
      <point x="675" y="148" type="line"/>
      <point x="636" y="48"/>
      <point x="549" y="-18"/>
      <point x="384" y="-18" type="curve" smooth="yes"/>
      <point x="161" y="-18"/>
      <point x="65" y="107"/>
      <point x="65" y="381" type="curve" smooth="yes"/>
      <point x="65" y="651"/>
      <point x="163" y="760"/>
      <point x="403" y="760" type="curve"/>
      <point x="505" y="760"/>
      <point x="590" y="738"/>
      <point x="643" y="705" type="curve"/>
      <point x="617" y="505" type="line"/>
      <point x="595" y="505" type="line"/>
      <point x="541" y="718" type="line"/>
      <point x="578" y="643" type="line"/>
      <point x="523" y="688"/>
      <point x="473" y="698"/>
      <point x="392" y="698" type="curve" smooth="yes"/>
      <point x="236" y="698"/>
      <point x="135" y="586"/>
      <point x="133" y="427" type="curve" smooth="yes"/>
      <point x="129" y="122"/>
      <point x="244" y="40"/>
      <point x="384" y="40" type="curve" smooth="yes"/>
      <point x="483" y="40"/>
      <point x="579" y="90"/>
      <point x="614" y="182" type="curve"/>
    </contour>
  </outline>
</glyph>
<glyph name="H" format="2">
  <advance width="823"/>
  <unicode hex="0048"/>
  <outline>
    <contour>
      <point x="162" y="355" type="line"/>
      <point x="162" y="416" type="line"/>
      <point x="662" y="416" type="line"/>
      <point x="662" y="355" type="line"/>
    </contour>
    <contour>
      <point x="186" y="714" type="line"/>
      <point x="186" y="41" type="line"/>
      <point x="133" y="70" type="line"/>
      <point x="259" y="70" type="line"/>
      <point x="259" y="0" type="line"/>
      <point x="50" y="0" type="line"/>
      <point x="50" y="48" type="line"/>
      <point x="158" y="77" type="line"/>
      <point x="124" y="49" type="line"/>
      <point x="124" y="706" type="line"/>
      <point x="187" y="670" type="line"/>
      <point x="50" y="670" type="line"/>
      <point x="50" y="740" type="line"/>
      <point x="259" y="740" type="line"/>
      <point x="259" y="692" type="line"/>
      <point x="156" y="663" type="line"/>
    </contour>
    <contour>
      <point x="699" y="709" type="line"/>
      <point x="699" y="37" type="line"/>
      <point x="636" y="70" type="line"/>
      <point x="773" y="70" type="line"/>
      <point x="773" y="0" type="line"/>
      <point x="564" y="0" type="line"/>
      <point x="564" y="48" type="line"/>
      <point x="667" y="77" type="line"/>
      <point x="637" y="49" type="line"/>
      <point x="637" y="702" type="line"/>
      <point x="690" y="670" type="line"/>
      <point x="564" y="670" type="line"/>
      <point x="564" y="740" type="line"/>
      <point x="773" y="740" type="line"/>
      <point x="773" y="692" type="line"/>
      <point x="665" y="663" type="line"/>
    </contour>
  </outline>
</glyph>
<glyph name="I" format="2">
  <advance width="424"/>
  <unicode hex="0049"/>
  <outline>
    <contour>
      <point x="241" y="19" type="line"/>
      <point x="213" y="70" type="line"/>
      <point x="349" y="70" type="line"/>
      <point x="349" y="0" type="line"/>
      <point x="75" y="0" type="line"/>
      <point x="75" y="48" type="line"/>
      <point x="208" y="77" type="line"/>
      <point x="185" y="31" type="line"/>
      <point x="185" y="702" type="line"/>
      <point x="201" y="670" type="line"/>
      <point x="75" y="670" type="line"/>
      <point x="75" y="740" type="line"/>
      <point x="349" y="740" type="line"/>
      <point x="349" y="692" type="line"/>
      <point x="216" y="663" type="line"/>
      <point x="241" y="709" type="line"/>
    </contour>
  </outline>
</glyph>
<glyph name="L" format="2">
  <advance width="658"/>
  <unicode hex="004C"/>
  <outline>
    <contour>
      <point x="149" y="60" type="line"/>
      <point x="586" y="60" type="line"/>
      <point x="521" y="23" type="line"/>
      <point x="575" y="272" type="line"/>
      <point x="605" y="272" type="line"/>
      <point x="605" y="1" type="line"/>
      <point x="55" y="0" type="line"/>
      <point x="55" y="36" type="line"/>
      <point x="163" y="65" type="line"/>
      <point x="129" y="37" type="line"/>
      <point x="129" y="706" type="line"/>
      <point x="192" y="670" type="line"/>
      <point x="55" y="670" type="line"/>
      <point x="55" y="740" type="line"/>
      <point x="414" y="740" type="line"/>
      <point x="416" y="689" type="line"/>
      <point x="163" y="664" type="line"/>
      <point x="191" y="714" type="line"/>
      <point x="191" y="29" type="line"/>
    </contour>
  </outline>
</glyph>
<glyph name="N" format="2">
  <advance width="823"/>
  <unicode hex="004E"/>
  <outline>
    <contour>
      <point x="619" y="-1" type="line"/>
      <point x="180" y="666" type="line"/>
      <point x="180" y="709" type="line"/>
      <point x="180" y="41" type="line"/>
      <point x="145" y="70" type="line"/>
      <point x="319" y="70" type="line"/>
      <point x="319" y="0" type="line"/>
      <point x="50" y="0" type="line"/>
      <point x="50" y="48" type="line"/>
      <point x="158" y="77" type="line"/>
      <point x="124" y="49" type="line"/>
      <point x="124" y="706" type="line"/>
      <point x="177" y="670" type="line"/>
      <point x="50" y="670" type="line"/>
      <point x="50" y="740" type="line"/>
      <point x="216" y="740" type="line"/>
      <point x="619" y="126" type="line"/>
      <point x="618" y="126" type="line"/>
      <point x="617" y="702" type="line"/>
      <point x="630" y="670" type="line"/>
      <point x="534" y="670" type="line"/>
      <point x="534" y="740" type="line"/>
      <point x="803" y="740" type="line"/>
      <point x="803" y="692" type="line"/>
      <point x="636" y="663" type="line"/>
      <point x="670" y="709" type="line"/>
      <point x="670" y="0" type="line"/>
    </contour>
  </outline>
</glyph>
<glyph name="O" format="2">
  <advance width="758"/>
  <unicode hex="004F"/>
  <outline>
    <contour>
      <point x="374" y="-18" type="curve" smooth="yes"/>
      <point x="153" y="-18"/>
      <point x="58" y="105"/>
      <point x="58" y="375" type="curve" smooth="yes"/>
      <point x="58" y="650"/>
      <point x="157" y="759"/>
      <point x="384" y="759" type="curve" smooth="yes"/>
      <point x="606" y="759"/>
      <point x="701" y="634"/>
      <point x="701" y="364" type="curve" smooth="yes"/>
      <point x="701" y="89"/>
      <point x="602" y="-18"/>
    </contour>
    <contour>
      <point x="385" y="699" type="curve" smooth="yes"/>
      <point x="206" y="699"/>
      <point x="125" y="564"/>
      <point x="122" y="415" type="curve" smooth="yes"/>
      <point x="118" y="164"/>
      <point x="203" y="40"/>
      <point x="374" y="40" type="curve" smooth="yes"/>
      <point x="553" y="40"/>
      <point x="634" y="175"/>
      <point x="637" y="324" type="curve" smooth="yes"/>
      <point x="641" y="575"/>
      <point x="556" y="699"/>
    </contour>
  </outline>
</glyph>
<glyph name="P" format="2">
  <advance width="684"/>
  <unicode hex="0050"/>
  <outline>
    <contour>
      <point x="363" y="676" type="curve"/>
      <point x="164" y="675" type="line"/>
      <point x="184" y="714" type="line"/>
      <point x="184" y="41" type="line"/>
      <point x="141" y="70" type="line"/>
      <point x="367" y="70" type="line"/>
      <point x="367" y="0" type="line"/>
      <point x="50" y="0" type="line"/>
      <point x="50" y="48" type="line"/>
      <point x="158" y="77" type="line"/>
      <point x="124" y="49" type="line"/>
      <point x="124" y="706" type="line"/>
      <point x="187" y="670" type="line"/>
      <point x="50" y="670" type="line"/>
      <point x="50" y="740" type="line"/>
      <point x="325" y="740" type="line"/>
      <point x="543" y="740"/>
      <point x="628" y="689"/>
      <point x="628" y="509" type="curve" smooth="yes"/>
      <point x="628" y="319"/>
      <point x="561.0" y="262.0"/>
      <point x="311" y="262" type="curve" smooth="yes"/>
      <point x="160" y="262" type="line"/>
      <point x="160" y="327" type="line"/>
      <point x="339" y="327" type="line" smooth="yes"/>
      <point x="521" y="327"/>
      <point x="564" y="384"/>
      <point x="564" y="509" type="curve" smooth="yes"/>
      <point x="564" y="633"/>
      <point x="498" y="676"/>
    </contour>
  </outline>
</glyph>
<glyph name="Q" format="2">
  <advance width="758"/>
  <unicode hex="0051"/>
  <outline>
    <contour>
      <point x="600" y="121" type="line"/>
      <point x="793" y="-70" type="line"/>
      <point x="762" y="-101" type="line"/>
      <point x="510" y="68" type="line"/>
    </contour>
    <component base="O" xOffset="8" yOffset="4"/>
  </outline>
</glyph>
<glyph name="T" format="2">
  <advance width="756"/>
  <unicode hex="0054"/>
  <outline>
    <contour>
      <point x="674" y="671" type="line"/>
      <point x="637" y="701" type="line"/>
      <point x="653" y="445" type="line"/>
      <point x="704" y="445" type="line"/>
      <point x="717" y="740" type="line"/>
      <point x="39" y="740" type="line"/>
      <point x="52" y="445" type="line"/>
      <point x="103" y="445" type="line"/>
      <point x="119" y="701" type="line"/>
      <point x="82" y="671" type="line"/>
    </contour>
    <contour>
      <point x="341" y="701" type="line"/>
      <point x="341" y="36" type="line"/>
      <point x="371" y="80" type="line"/>
      <point x="187" y="45" type="line"/>
      <point x="187" y="1" type="line"/>
      <point x="569" y="1" type="line"/>
      <point x="569" y="45" type="line"/>
      <point x="376" y="80" type="line"/>
      <point x="405" y="36" type="line"/>
      <point x="405" y="701" type="line"/>
    </contour>
  </outline>
</glyph>
<glyph name="U" format="2">
  <advance width="816"/>
  <unicode hex="0055"/>
  <outline>
    <contour>
      <point x="620" y="60" type="line"/>
      <point x="635" y="113" type="line"/>
      <point x="613" y="127" type="line"/>
      <point x="561" y="71"/>
      <point x="457" y="50"/>
      <point x="370" y="50" type="curve"/>
      <point x="237" y="50"/>
      <point x="159" y="90"/>
      <point x="159" y="198" type="curve"/>
      <point x="159" y="699" type="line"/>
      <point x="130" y="661" type="line"/>
      <point x="242" y="692" type="line"/>
      <point x="242" y="740" type="line"/>
      <point x="21" y="740" type="line"/>
      <point x="21" y="670" type="line"/>
      <point x="125" y="670" type="line"/>
      <point x="95" y="700" type="line"/>
      <point x="95" y="229" type="line"/>
      <point x="95" y="86"/>
      <point x="182" y="-18"/>
      <point x="333" y="-18" type="curve" smooth="yes"/>
      <point x="486" y="-18"/>
      <point x="551" y="-2"/>
      <point x="569" y="60" type="curve"/>
    </contour>
    <contour>
      <point x="724" y="70" type="line"/>
      <point x="613" y="70" type="line"/>
      <point x="643" y="40" type="line"/>
      <point x="641" y="702" type="line"/>
      <point x="620" y="664" type="line"/>
      <point x="724" y="692" type="line"/>
      <point x="724" y="740" type="line"/>
      <point x="495" y="740" type="line"/>
      <point x="495" y="670" type="line"/>
      <point x="608" y="670" type="line"/>
      <point x="578" y="700" type="line"/>
      <point x="578" y="0" type="line"/>
      <point x="724" y="0" type="line"/>
    </contour>
  </outline>
</glyph>
<glyph name="a" format="2">
  <advance width="580"/>
  <unicode hex="0061"/>
  <outline>
    <contour>
      <point x="84" y="163" type="curve" smooth="yes"/>
      <point x="84" y="258.0"/>
      <point x="138" y="286"/>
      <point x="236" y="286" type="curve" smooth="yes"/>
      <point x="330" y="286"/>
      <point x="399" y="200"/>
      <point x="399" y="200" type="curve"/>
      <point x="418" y="229" type="line"/>
      <point x="359" y="313"/>
      <point x="304" y="329"/>
      <point x="234" y="329" type="curve" smooth="yes"/>
      <point x="103" y="329"/>
      <point x="32" y="277"/>
      <point x="32" y="154" type="curve" smooth="yes"/>
      <point x="32" y="39"/>
      <point x="101" y="-18"/>
      <point x="211" y="-18" type="curve" smooth="yes"/>
      <point x="306" y="-18"/>
      <point x="376" y="29.0"/>
      <point x="376" y="95" type="curve"/>
      <point x="358" y="60" type="line"/>
      <point x="436" y="60" type="line"/>
      <point x="436" y="60"/>
      <point x="421" y="162"/>
      <point x="421" y="162" type="curve"/>
      <point x="396" y="123"/>
      <point x="313" y="24"/>
      <point x="230" y="24" type="curve" smooth="yes"/>
      <point x="141" y="24"/>
      <point x="84" y="73"/>
    </contour>
    <contour>
      <point x="502" y="48" type="line"/>
      <point x="403" y="99" type="line"/>
      <point x="442" y="43" type="line"/>
      <point x="442" y="333" type="line" smooth="yes"/>
      <point x="442" y="488"/>
      <point x="410.0" y="558"/>
      <point x="287" y="558" type="curve" smooth="yes"/>
      <point x="244" y="558"/>
      <point x="170" y="551"/>
      <point x="64" y="516" type="curve"/>
      <point x="78" y="474" type="line"/>
      <point x="126" y="490"/>
      <point x="202" y="512"/>
      <point x="259" y="512" type="curve" smooth="yes"/>
      <point x="374.0" y="512"/>
      <point x="390" y="421"/>
      <point x="390" y="305" type="curve" smooth="yes"/>
      <point x="389" y="0" type="line"/>
      <point x="502" y="0" type="line"/>
    </contour>
  </outline>
</glyph>
<glyph name="b" format="2">
  <advance width="620"/>
  <unicode hex="0062"/>
  <outline>
    <contour>
      <point x="141" y="0" type="line"/>
      <point x="141" y="690" type="line"/>
      <point x="184" y="675" type="line"/>
      <point x="64" y="675" type="line"/>
      <point x="64" y="760" type="line"/>
      <point x="197" y="760" type="line"/>
      <point x="197" y="94" type="line"/>
      <point x="184" y="87" type="line"/>
      <point x="162" y="0" type="line"/>
    </contour>
    <contour>
      <point x="523" y="276" type="curve"/>
      <point x="523" y="418"/>
      <point x="480" y="494"/>
      <point x="390" y="494" type="curve" smooth="yes"/>
      <point x="280" y="494"/>
      <point x="237" y="451"/>
      <point x="166" y="412" type="curve"/>
      <point x="166" y="456" type="line"/>
      <point x="286" y="486" type="line"/>
      <point x="215" y="444" type="line"/>
      <point x="215" y="502"/>
      <point x="286" y="554"/>
      <point x="392" y="554" type="curve" smooth="yes"/>
      <point x="496" y="554"/>
      <point x="582" y="513"/>
      <point x="582" y="265" type="curve" smooth="yes"/>
      <point x="582" y="44"/>
      <point x="486" y="-11"/>
      <point x="359" y="-11" type="curve" smooth="yes"/>
      <point x="248" y="-11"/>
      <point x="158" y="70"/>
      <point x="147" y="142" type="curve"/>
      <point x="173" y="159" type="line"/>
      <point x="206" y="97"/>
      <point x="258" y="36"/>
      <point x="364" y="36" type="curve" smooth="yes"/>
      <point x="466" y="36"/>
      <point x="523" y="113"/>
    </contour>
  </outline>
</glyph>
<glyph name="c" format="2">
  <advance width="556"/>
  <unicode hex="0063"/>
  <outline>
    <contour>
      <point x="510" y="62" type="curve"/>
      <point x="484" y="102" type="line"/>
      <point x="446" y="73"/>
      <point x="379" y="30"/>
      <point x="293" y="30" type="curve" smooth="yes"/>
      <point x="157" y="30"/>
      <point x="115" y="150"/>
      <point x="115" y="284" type="curve" smooth="yes"/>
      <point x="115" y="425"/>
      <point x="177" y="514"/>
      <point x="296" y="514" type="curve" smooth="yes"/>
      <point x="399" y="514"/>
      <point x="420" y="481"/>
      <point x="434" y="463" type="curve" smooth="yes"/>
      <point x="448" y="444"/>
      <point x="452" y="379"/>
      <point x="449" y="334" type="curve"/>
      <point x="496" y="334" type="line"/>
      <point x="508" y="529"/>
      <point x="446" y="555"/>
      <point x="288" y="555" type="curve" smooth="yes"/>
      <point x="140" y="555"/>
      <point x="49" y="472"/>
      <point x="49" y="270" type="curve" smooth="yes"/>
      <point x="49" y="66"/>
      <point x="135" y="-11"/>
      <point x="285" y="-11" type="curve" smooth="yes"/>
      <point x="373" y="-11"/>
      <point x="437" y="7"/>
    </contour>
  </outline>
</glyph>
<glyph name="d" format="2">
  <advance width="647"/>
  <unicode hex="0064"/>
  <outline>
    <contour>
      <point x="304" y="760" type="line"/>
      <point x="476" y="760" type="line"/>
      <point x="476" y="48" type="line"/>
      <point x="421" y="78" type="line"/>
      <point x="533" y="48" type="line"/>
      <point x="533" y="0" type="line"/>
      <point x="421" y="0" type="line"/>
      <point x="421" y="711" type="line"/>
      <point x="449" y="672" type="line"/>
      <point x="304" y="711" type="line"/>
    </contour>
    <contour>
      <point x="251" y="-10" type="curve" smooth="yes"/>
      <point x="148" y="-10"/>
      <point x="44" y="28"/>
      <point x="44" y="284" type="curve"/>
      <point x="44" y="505"/>
      <point x="149" y="555"/>
      <point x="269" y="555" type="curve" smooth="yes"/>
      <point x="380" y="555"/>
      <point x="461" y="473"/>
      <point x="472" y="401" type="curve"/>
      <point x="439" y="387" type="line"/>
      <point x="425" y="442"/>
      <point x="369" y="504"/>
      <point x="258" y="504" type="curve" smooth="yes"/>
      <point x="163" y="504"/>
      <point x="105" y="414"/>
      <point x="105" y="309" type="curve" smooth="yes"/>
      <point x="105" y="135"/>
      <point x="131" y="47"/>
      <point x="252" y="47" type="curve" smooth="yes"/>
      <point x="366" y="47"/>
      <point x="444" y="134"/>
      <point x="470" y="162" type="curve"/>
      <point x="454" y="46" type="line"/>
      <point x="386" y="46" type="line"/>
      <point x="450" y="121" type="line"/>
      <point x="450" y="31"/>
      <point x="357" y="-10"/>
    </contour>
  </outline>
</glyph>
<glyph name="e" format="2">
  <advance width="556"/>
  <unicode hex="0065"/>
  <outline>
    <contour>
      <point x="443" y="290" type="curve"/>
      <point x="478" y="294" type="line"/>
      <point x="258" y="294" type="line" smooth="yes"/>
      <point x="145" y="294"/>
      <point x="128" y="295"/>
      <point x="128" y="254" type="curve"/>
      <point x="80" y="254" type="line"/>
      <point x="80" y="238" type="line"/>
      <point x="498" y="238" type="line"/>
      <point x="504" y="381"/>
      <point x="493" y="462"/>
      <point x="446" y="508" type="curve" smooth="yes"/>
      <point x="409" y="543"/>
      <point x="366" y="554"/>
      <point x="282" y="554" type="curve" smooth="yes"/>
      <point x="129" y="554"/>
      <point x="52" y="470"/>
      <point x="52" y="270" type="curve" smooth="yes"/>
      <point x="52" y="69"/>
      <point x="124" y="-11"/>
      <point x="284" y="-11" type="curve" smooth="yes"/>
      <point x="370" y="-11"/>
      <point x="427" y="7"/>
      <point x="498" y="61" type="curve"/>
      <point x="471" y="112" type="line"/>
      <point x="435" y="84"/>
      <point x="377" y="46"/>
      <point x="291" y="46" type="curve" smooth="yes"/>
      <point x="173" y="46"/>
      <point x="114" y="133"/>
      <point x="114" y="256" type="curve" smooth="yes"/>
      <point x="114" y="446"/>
      <point x="183" y="501"/>
      <point x="296" y="501" type="curve" smooth="yes"/>
      <point x="416" y="501"/>
      <point x="449" y="425"/>
    </contour>
  </outline>
</glyph>
<glyph name="h" format="2">
  <advance width="649"/>
  <unicode hex="0068"/>
  <outline>
    <contour>
      <point x="585" y="48" type="line"/>
      <point x="483" y="97" type="line"/>
      <point x="531" y="45" type="line"/>
      <point x="531" y="369" type="line" smooth="yes"/>
      <point x="531" y="509"/>
      <point x="478" y="555"/>
      <point x="367" y="555" type="curve" smooth="yes"/>
      <point x="270" y="555"/>
      <point x="202" y="526"/>
      <point x="196" y="453" type="curve"/>
      <point x="251" y="485" type="line"/>
      <point x="166" y="485" type="line"/>
      <point x="166" y="407" type="line"/>
      <point x="193" y="460"/>
      <point x="295" y="484"/>
      <point x="351" y="484" type="curve" smooth="yes"/>
      <point x="429" y="484"/>
      <point x="479" y="455"/>
      <point x="479" y="418" type="curve" smooth="yes"/>
      <point x="479" y="45" type="line"/>
      <point x="507" y="87" type="line"/>
      <point x="422" y="48" type="line"/>
      <point x="422" y="-1" type="line"/>
      <point x="585" y="-1" type="line"/>
    </contour>
    <contour>
      <point x="241" y="-1" type="line"/>
      <point x="241" y="48" type="line"/>
      <point x="156" y="90" type="line"/>
      <point x="184" y="48" type="line"/>
      <point x="184" y="759" type="line"/>
      <point x="72" y="760" type="line"/>
      <point x="72" y="680" type="line"/>
      <point x="184" y="680" type="line"/>
      <point x="132" y="709" type="line"/>
      <point x="132" y="55" type="line"/>
      <point x="147" y="81" type="line"/>
      <point x="72" y="48" type="line"/>
      <point x="72" y="-1" type="line"/>
    </contour>
  </outline>
</glyph>
<glyph name="i" format="2">
  <advance width="341"/>
  <unicode hex="0069"/>
  <outline>
    <contour>
      <point x="311" y="-1" type="line"/>
      <point x="311" y="48" type="line"/>
      <point x="206" y="83" type="line"/>
      <point x="234" y="48" type="line"/>
      <point x="234" y="539" type="line"/>
      <point x="107" y="539" type="line"/>
      <point x="107" y="459" type="line"/>
      <point x="234" y="459" type="line"/>
      <point x="182" y="488" type="line"/>
      <point x="182" y="55" type="line"/>
      <point x="197" y="74" type="line"/>
      <point x="102" y="48" type="line"/>
      <point x="102" y="-1" type="line"/>
    </contour>
    <contour>
      <point x="176" y="661" type="curve"/>
      <point x="211" y="660"/>
      <point x="240" y="685"/>
      <point x="240" y="728" type="curve" smooth="yes"/>
      <point x="240" y="774"/>
      <point x="211" y="796"/>
      <point x="176" y="796" type="curve"/>
      <point x="139" y="796"/>
      <point x="122" y="772"/>
      <point x="122" y="729" type="curve" smooth="yes"/>
      <point x="122" y="683"/>
      <point x="139" y="661"/>
    </contour>
  </outline>
</glyph>
<glyph name="l" format="2">
  <advance width="331"/>
  <unicode hex="006C"/>
  <outline>
    <contour>
      <point x="306" y="-1" type="line"/>
      <point x="306" y="48" type="line"/>
      <point x="201" y="83" type="line"/>
      <point x="229" y="48" type="line"/>
      <point x="229" y="760" type="line"/>
      <point x="102" y="760" type="line"/>
      <point x="102" y="675" type="line"/>
      <point x="229" y="675" type="line"/>
      <point x="177" y="709" type="line"/>
      <point x="177" y="55" type="line"/>
      <point x="192" y="74" type="line"/>
      <point x="97" y="48" type="line"/>
      <point x="97" y="-1" type="line"/>
    </contour>
  </outline>
</glyph>
<glyph name="m" format="2">
  <advance width="948"/>
  <unicode hex="006D"/>
  <outline>
    <contour>
      <point x="597" y="48" type="line"/>
      <point x="498" y="97" type="line"/>
      <point x="543" y="45" type="line"/>
      <point x="543" y="359" type="line"/>
      <point x="543" y="517"/>
      <point x="500" y="555"/>
      <point x="399" y="555" type="curve" smooth="yes"/>
      <point x="304" y="555"/>
      <point x="243" y="531"/>
      <point x="237" y="459" type="curve"/>
      <point x="253" y="495" type="line"/>
      <point x="201" y="495" type="line"/>
      <point x="201" y="413" type="line"/>
      <point x="228" y="466"/>
      <point x="316" y="486"/>
      <point x="372" y="486" type="curve" smooth="yes"/>
      <point x="450" y="486"/>
      <point x="491.0" y="457.0"/>
      <point x="491" y="410" type="curve" smooth="yes"/>
      <point x="491" y="45" type="line"/>
      <point x="519" y="87" type="line"/>
      <point x="434" y="48" type="line"/>
      <point x="434" y="-1" type="line"/>
      <point x="597" y="-1" type="line"/>
    </contour>
    <contour>
      <point x="283" y="-1" type="line"/>
      <point x="283" y="48" type="line"/>
      <point x="198" y="90" type="line"/>
      <point x="226" y="48" type="line"/>
      <point x="226" y="539" type="line"/>
      <point x="114" y="539" type="line"/>
      <point x="114" y="459" type="line"/>
      <point x="226" y="459" type="line"/>
      <point x="174" y="488" type="line"/>
      <point x="174" y="55" type="line"/>
      <point x="189" y="81" type="line"/>
      <point x="114" y="48" type="line"/>
      <point x="114" y="-1" type="line"/>
    </contour>
    <contour>
      <point x="914" y="48" type="line"/>
      <point x="820" y="95" type="line"/>
      <point x="860" y="45" type="line"/>
      <point x="860" y="359" type="line"/>
      <point x="860" y="507"/>
      <point x="811" y="555"/>
      <point x="707" y="555" type="curve" smooth="yes"/>
      <point x="611" y="555"/>
      <point x="555" y="531"/>
      <point x="549" y="459" type="curve"/>
      <point x="570" y="495" type="line"/>
      <point x="506" y="495" type="line"/>
      <point x="504" y="393" type="line"/>
      <point x="531" y="446"/>
      <point x="628" y="486"/>
      <point x="684" y="486" type="curve" smooth="yes"/>
      <point x="762" y="486"/>
      <point x="808" y="457"/>
      <point x="808" y="410" type="curve" smooth="yes"/>
      <point x="808" y="45" type="line"/>
      <point x="836" y="87" type="line"/>
      <point x="751" y="48" type="line"/>
      <point x="751" y="-1" type="line"/>
      <point x="914" y="-1" type="line"/>
    </contour>
  </outline>
</glyph>
<glyph name="n" format="2">
  <advance width="649"/>
  <unicode hex="006E"/>
  <outline>
    <contour>
      <point x="621" y="48" type="line"/>
      <point x="509" y="103" type="line"/>
      <point x="567" y="45" type="line"/>
      <point x="567" y="369" type="line"/>
      <point x="567" y="509"/>
      <point x="514" y="555"/>
      <point x="403" y="555" type="curve" smooth="yes"/>
      <point x="306" y="555"/>
      <point x="239" y="522"/>
      <point x="233" y="449" type="curve"/>
      <point x="268" y="485" type="line"/>
      <point x="204" y="485" type="line"/>
      <point x="204" y="407" type="line"/>
      <point x="231" y="460"/>
      <point x="321" y="486"/>
      <point x="377" y="486" type="curve" smooth="yes"/>
      <point x="455" y="486"/>
      <point x="505" y="460"/>
      <point x="505" y="418" type="curve" smooth="yes"/>
      <point x="505" y="45" type="line"/>
      <point x="533" y="87" type="line"/>
      <point x="448" y="48" type="line"/>
      <point x="448" y="-1" type="line"/>
      <point x="621" y="-1" type="line"/>
    </contour>
    <contour>
      <point x="278" y="-1" type="line"/>
      <point x="278" y="48" type="line"/>
      <point x="193" y="90" type="line"/>
      <point x="221" y="48" type="line"/>
      <point x="221" y="539" type="line"/>
      <point x="99" y="539" type="line"/>
      <point x="99" y="459" type="line"/>
      <point x="211" y="459" type="line"/>
      <point x="159" y="488" type="line"/>
      <point x="159" y="55" type="line"/>
      <point x="174" y="81" type="line"/>
      <point x="99" y="48" type="line"/>
      <point x="99" y="-1" type="line"/>
    </contour>
  </outline>
</glyph>
<glyph name="o" format="2">
  <advance width="596"/>
  <unicode hex="006F"/>
  <outline>
    <contour>
      <point x="298" y="-18" type="curve"/>
      <point x="469" y="-18"/>
      <point x="544" y="60"/>
      <point x="544" y="268" type="curve" smooth="yes"/>
      <point x="544" y="485"/>
      <point x="466" y="558"/>
      <point x="298" y="558" type="curve" smooth="yes"/>
      <point x="128" y="558"/>
      <point x="51" y="481"/>
      <point x="51" y="273" type="curve" smooth="yes"/>
      <point x="51" y="56"/>
      <point x="130" y="-18"/>
    </contour>
    <contour>
      <point x="120" y="295" type="curve" smooth="yes"/>
      <point x="120" y="397"/>
      <point x="149" y="498"/>
      <point x="302" y="498" type="curve" smooth="yes"/>
      <point x="449" y="498"/>
      <point x="475" y="431"/>
      <point x="475" y="245" type="curve" smooth="yes"/>
      <point x="475" y="143"/>
      <point x="447" y="42"/>
      <point x="294" y="42" type="curve" smooth="yes"/>
      <point x="147" y="42"/>
      <point x="120" y="109"/>
    </contour>
  </outline>
</glyph>
<glyph name="p" format="2">
  <advance width="647"/>
  <unicode hex="0070"/>
  <outline>
    <contour>
      <point x="374" y="-12" type="curve" smooth="yes"/>
      <point x="273" y="-12"/>
      <point x="194" y="71"/>
      <point x="182" y="119" type="curve"/>
      <point x="193" y="159" type="line"/>
      <point x="226" y="96"/>
      <point x="294" y="35"/>
      <point x="379" y="35" type="curve" smooth="yes"/>
      <point x="491" y="35"/>
      <point x="544" y="123"/>
      <point x="544" y="280" type="curve" smooth="yes"/>
      <point x="544" y="430"/>
      <point x="498" y="495"/>
      <point x="399" y="495" type="curve" smooth="yes"/>
      <point x="335" y="495"/>
      <point x="256" y="458"/>
      <point x="186" y="407" type="curve"/>
      <point x="210" y="489" type="line"/>
      <point x="281" y="489" type="line"/>
      <point x="236" y="483" type="line"/>
      <point x="236" y="527"/>
      <point x="329" y="555"/>
      <point x="416" y="555" type="curve" smooth="yes"/>
      <point x="534" y="555"/>
      <point x="603" y="479"/>
      <point x="603" y="278" type="curve" smooth="yes"/>
      <point x="603" y="16"/>
      <point x="481" y="-12"/>
    </contour>
    <contour>
      <point x="93" y="-210" type="line"/>
      <point x="93" y="-159" type="line"/>
      <point x="198" y="-139" type="line"/>
      <point x="168" y="-169" type="line"/>
      <point x="168" y="459" type="line"/>
      <point x="108" y="459" type="line"/>
      <point x="108" y="540" type="line"/>
      <point x="224" y="540" type="line"/>
      <point x="224" y="-164" type="line"/>
      <point x="191" y="-127" type="line"/>
      <point x="368" y="-170" type="line"/>
      <point x="368" y="-210" type="line"/>
    </contour>
  </outline>
</glyph>
<glyph name="q" format="2">
  <advance width="620"/>
  <unicode hex="0071"/>
  <outline>
    <contour>
      <point x="252" y="-11" type="curve" smooth="yes"/>
      <point x="149" y="-11"/>
      <point x="44" y="36"/>
      <point x="44" y="284" type="curve"/>
      <point x="44" y="508"/>
      <point x="139" y="554"/>
      <point x="265" y="554" type="curve" smooth="yes"/>
      <point x="376" y="554"/>
      <point x="460" y="465"/>
      <point x="471" y="393" type="curve"/>
      <point x="463" y="377" type="line"/>
      <point x="449" y="428"/>
      <point x="321" y="495"/>
      <point x="256" y="495" type="curve" smooth="yes"/>
      <point x="145" y="495"/>
      <point x="102" y="421"/>
      <point x="102" y="309" type="curve" smooth="yes"/>
      <point x="102" y="134"/>
      <point x="142" y="35"/>
      <point x="262" y="35" type="curve" smooth="yes"/>
      <point x="366" y="35"/>
      <point x="440" y="121"/>
      <point x="473" y="186" type="curve"/>
      <point x="472" y="39" type="line"/>
      <point x="324" y="39" type="line"/>
      <point x="421" y="81" type="line"/>
      <point x="421" y="31"/>
      <point x="358" y="-11"/>
    </contour>
    <contour>
      <point x="278" y="-210" type="line"/>
      <point x="278" y="-170" type="line"/>
      <point x="449" y="-128" type="line"/>
      <point x="421" y="-162" type="line"/>
      <point x="421" y="464" type="line"/>
      <point x="433" y="471" type="line"/>
      <point x="455" y="558" type="line"/>
      <point x="478" y="558" type="line"/>
      <point x="478" y="-164" type="line"/>
      <point x="448" y="-139" type="line"/>
      <point x="553" y="-159" type="line"/>
      <point x="553" y="-210" type="line"/>
    </contour>
  </outline>
</glyph>
<glyph name="r" format="2">
  <advance width="539"/>
  <unicode hex="0072"/>
  <outline>
    <contour>
      <point x="379" y="-1" type="line"/>
      <point x="379" y="49" type="line"/>
      <point x="193" y="81" type="line"/>
      <point x="241" y="48" type="line"/>
      <point x="241" y="539" type="line"/>
      <point x="109" y="539" type="line"/>
      <point x="109" y="459" type="line"/>
      <point x="221" y="459" type="line"/>
      <point x="187" y="488" type="line"/>
      <point x="187" y="55" type="line"/>
      <point x="218" y="76" type="line"/>
      <point x="109" y="48" type="line"/>
      <point x="109" y="-1" type="line"/>
    </contour>
    <contour>
      <point x="481" y="332" type="line"/>
      <point x="506" y="500"/>
      <point x="476" y="554"/>
      <point x="383" y="554" type="curve" smooth="yes"/>
      <point x="312" y="554"/>
      <point x="253" y="518"/>
      <point x="253" y="467" type="curve"/>
      <point x="285" y="485" type="line"/>
      <point x="223" y="485" type="line"/>
      <point x="222" y="413" type="line"/>
      <point x="250" y="456"/>
      <point x="322" y="482"/>
      <point x="368" y="482" type="curve" smooth="yes"/>
      <point x="435" y="482"/>
      <point x="440" y="389"/>
      <point x="446" y="331" type="curve"/>
    </contour>
  </outline>
</glyph>
<glyph name="u" format="2">
  <advance width="646"/>
  <unicode hex="0075"/>
  <outline>
    <contour>
      <point x="7" y="492" type="line"/>
      <point x="129" y="437" type="line"/>
      <point x="71" y="495" type="line"/>
      <point x="71" y="171" type="line"/>
      <point x="71" y="31"/>
      <point x="127" y="-15"/>
      <point x="238" y="-15" type="curve" smooth="yes"/>
      <point x="335" y="-15"/>
      <point x="401" y="12"/>
      <point x="407" y="92" type="curve"/>
      <point x="372" y="56" type="line"/>
      <point x="437" y="28" type="line"/>
      <point x="438" y="132" type="line"/>
      <point x="411" y="79"/>
      <point x="320" y="61"/>
      <point x="264" y="61" type="curve" smooth="yes"/>
      <point x="186" y="61"/>
      <point x="133" y="84"/>
      <point x="133" y="121" type="curve" smooth="yes"/>
      <point x="133" y="541" type="line"/>
      <point x="7" y="541" type="line"/>
    </contour>
    <contour>
      <point x="351" y="541" type="line"/>
      <point x="351" y="492" type="line"/>
      <point x="446" y="448" type="line"/>
      <point x="418" y="492" type="line"/>
      <point x="418" y="1" type="line"/>
      <point x="540" y="1" type="line"/>
      <point x="540" y="48" type="line"/>
      <point x="428" y="91" type="line"/>
      <point x="480" y="52" type="line"/>
      <point x="480" y="541" type="line"/>
    </contour>
  </outline>
</glyph>
<glyph name="Ntilde" format="2">
  <advance width="784"/>
  <unicode hex="00D1"/>
  <outline>
    <contour>
      <point x="214" y="832.0" type="line"/>
      <point x="215" y="851.0" type="line"/>
      <point x="215" y="920.0"/>
      <point x="203" y="1022.0"/>
      <point x="330" y="1022.0" type="curve" smooth="yes"/>
      <point x="383" y="1022.0"/>
      <point x="418" y="1020.0"/>
      <point x="454" y="969.0" type="curve"/>
      <point x="485" y="922.0"/>
      <point x="497" y="917.0"/>
      <point x="554" y="917.0" type="curve" smooth="yes"/>
      <point x="629" y="917.0"/>
      <point x="639" y="974.0"/>
      <point x="639" y="1018.0" type="curve"/>
      <point x="657" y="1018.0" type="line"/>
      <point x="657" y="1010.0" type="line"/>
      <point x="657" y="941.0"/>
      <point x="667" y="825.0"/>
      <point x="539" y="825.0" type="curve" smooth="yes"/>
      <point x="485" y="825.0"/>
      <point x="455" y="834.0"/>
      <point x="416" y="888.0" type="curve"/>
      <point x="383" y="935.0"/>
      <point x="373" y="940.0"/>
      <point x="314" y="940.0" type="curve" smooth="yes"/>
      <point x="242" y="940.0"/>
      <point x="232" y="878.0"/>
      <point x="232" y="832.0" type="curve"/>
    </contour>
    <component base="N" xOffset="9"/>
  </outline>
</glyph>
<glyph name="ntilde" format="2">
  <advance width="656"/>
  <unicode hex="00F1"/>
  <outline>
    <contour>
      <point x="461" y="632" type="curve" smooth="yes"/>
      <point x="425" y="632"/>
      <point x="409" y="638"/>
      <point x="383" y="674" type="curve"/>
      <point x="365" y="700"/>
      <point x="355" y="709"/>
      <point x="319" y="709" type="curve" smooth="yes"/>
      <point x="272" y="709"/>
      <point x="265" y="667"/>
      <point x="265" y="637" type="curve"/>
      <point x="253" y="637" type="line"/>
      <point x="254" y="649" type="line"/>
      <point x="254" y="695"/>
      <point x="246" y="763"/>
      <point x="331" y="763" type="curve" smooth="yes"/>
      <point x="365" y="763"/>
      <point x="386" y="762"/>
      <point x="409" y="728" type="curve"/>
      <point x="428" y="700"/>
      <point x="436" y="693"/>
      <point x="471" y="693" type="curve" smooth="yes"/>
      <point x="521" y="693"/>
      <point x="528" y="731"/>
      <point x="528" y="760" type="curve"/>
      <point x="539" y="760" type="line"/>
      <point x="539" y="755" type="line"/>
      <point x="539" y="709"/>
      <point x="546" y="632"/>
    </contour>
    <component base="n" xOffset="30"/>
  </outline>
</glyph>
<glyph name="r.alt" format="2">
  <advance width="540"/>
  <outline>
    <contour>
      <point x="373" y="31" type="line"/>
      <point x="223" y="72" type="line"/>
      <point x="223" y="540" type="line"/>
      <point x="109" y="540" type="line"/>
      <point x="109" y="459" type="line"/>
      <point x="169" y="459" type="line"/>
      <point x="169" y="56" type="line"/>
      <point x="109" y="56" type="line"/>
      <point x="109" y="0" type="line"/>
      <point x="373" y="0" type="line"/>
    </contour>
    <contour>
      <point x="223" y="476" type="line"/>
      <point x="223" y="360" type="line"/>
      <point x="223" y="433"/>
      <point x="265" y="483"/>
      <point x="338" y="483" type="curve"/>
      <point x="401" y="483"/>
      <point x="488" y="449"/>
      <point x="488" y="449" type="curve"/>
      <point x="525" y="485" type="line"/>
      <point x="525" y="485"/>
      <point x="454" y="558"/>
      <point x="354" y="558" type="curve" smooth="yes"/>
      <point x="253" y="558"/>
      <point x="236" y="476"/>
      <point x="236" y="476" type="curve"/>
    </contour>
  </outline>
</glyph>
